<?xml version="1.0" encoding="UTF-8"?>
<svg version="1.1" xmlns="http://www.w3.org/2000/svg" width="1127" height="994">
<path d="M0 0 C9.63498946 8.58593903 16.59544531 17.80761723 22.875 29 C23.61311603 30.29055385 24.35272531 31.5802547 25.09375 32.86914062 C26.57288113 35.44424645 28.04597185 38.02264463 29.51416016 40.60400391 C32.30475421 45.50007028 35.1812856 50.34437451 38.0625 55.1875 C43.45881084 64.29894036 48.81452178 73.4339832 54.16601562 82.57177734 C59.29507314 91.32898255 64.44301609 100.07470777 69.61376953 108.80737305 C72.6278909 113.9017872 75.62910079 119.00355524 78.6171875 124.11328125 C78.96856781 124.71406998 79.31994812 125.3148587 79.68197632 125.93385315 C80.03716339 126.54115768 80.39235046 127.14846222 80.75830078 127.77416992 C81.48468242 129.01612387 82.21108225 130.25806718 82.9375 131.5 C83.29777283 132.11598053 83.65804565 132.73196106 84.02923584 133.36660767 C89.02511363 141.90424737 94.07840126 150.40443974 99.1875 158.875 C104.89217511 168.33488923 110.4423885 177.87516031 115.93798828 187.45776367 C120.22774564 194.92042179 124.61348183 202.31881366 129.0625 209.6875 C134.16144145 218.13262178 139.15478786 226.62984073 144.0625 235.1875 C148.99374662 243.78487874 154.00722159 252.32480023 159.125 260.8125 C165.75035527 271.80047601 172.23401369 282.86534744 178.68212891 293.95800781 C182.15137703 299.91635814 185.6378873 305.86459241 189.125 311.8125 C189.48720642 312.43040405 189.84941284 313.04830811 190.22259521 313.68493652 C195.33503701 322.40517025 200.46709752 331.11362004 205.61621094 339.81225586 C210.05766785 347.32040041 214.46770647 354.8467806 218.875 362.375 C225.06357774 372.94553481 231.28939592 383.49302026 237.54443359 394.02441406 C240.9634048 399.78559439 244.36858584 405.55428603 247.74609375 411.33984375 C248.09588287 411.93889023 248.445672 412.53793671 248.80606079 413.15513611 C249.15687714 413.75596512 249.50769348 414.35679413 249.86914062 414.97583008 C250.57939786 416.19223712 251.2896843 417.4086271 252 418.625 C252.34973877 419.22396088 252.69947754 419.82292175 253.05981445 420.44003296 C258.8185347 430.29399432 264.71310867 440.05971237 270.66177368 449.79992676 C274.97061885 456.85921482 279.19589687 463.94495533 283.18701172 471.18920898 C286.53859558 477.23649411 290.11404578 483.14433443 293.6875 489.0625 C298.91126697 497.71612551 304.03508086 506.41836236 309.0625 515.1875 C313.99361806 523.78495097 319.00722331 532.32480309 324.125 540.8125 C330.75035527 551.80047601 337.23401369 562.86534744 343.68212891 573.95800781 C347.15137703 579.91635814 350.6378873 585.86459241 354.125 591.8125 C354.48720642 592.43040405 354.84941284 593.04830811 355.22259521 593.68493652 C360.33503701 602.40517025 365.46709752 611.11362004 370.61621094 619.81225586 C375.42243021 627.93701981 380.19171955 636.08326839 384.96084595 644.22982788 C390.19571404 653.17011331 395.46072774 662.09178581 400.75 671 C406.8583302 681.28986669 412.90884858 691.61187906 418.9296875 701.953125 C428.02962911 717.58030248 437.18433259 733.17603189 446.375 748.75 C447.15145874 750.06883179 447.15145874 750.06883179 447.94360352 751.41430664 C450.5399446 755.81294424 453.16889098 760.18706405 455.85546875 764.53125 C461.37954348 773.49282201 466.55464757 782.02352471 469.5625 792.1875 C469.80355469 792.97253906 470.04460937 793.75757813 470.29296875 794.56640625 C475.13945509 813.78971783 470.35286611 833.59052287 460.66113281 850.39355469 C450.98373419 866.19567137 435.59010476 876.82414378 417.83813014 881.54714352 C411.5859494 882.7693891 405.27567017 882.60019595 398.93253803 882.57061005 C397.36067853 882.57435158 395.7888217 882.57940376 394.21697012 882.58563888 C389.9037638 882.59895247 385.59075203 882.59367457 381.27754071 882.58530539 C376.58264568 882.57949256 371.8877877 882.59105105 367.19290274 882.60036707 C358.96635971 882.61427757 350.73987167 882.61701359 342.51331902 882.61240768 C330.27991343 882.60557619 318.04656354 882.61583247 305.8131657 882.62936524 C282.692912 882.65428345 259.57268137 882.65879385 236.4524164 882.65689927 C218.59859654 882.65552651 200.7447847 882.65934236 182.89096642 882.66682434 C180.3264247 882.66787467 177.76188298 882.66892229 175.19734126 882.6699672 C173.92432198 882.67048655 172.6513027 882.67100589 171.33970708 882.67154097 C170.06436431 882.67206112 168.78902155 882.67258126 167.47503203 882.67311716 C166.19756219 882.67364115 164.92009236 882.67416514 163.60391131 882.67470502 C127.67000355 882.68928997 91.7361 882.69759469 55.80218983 882.69295502 C55.12497194 882.69286915 54.44775406 882.69278329 53.75001442 882.69269482 C46.19852511 882.69173544 38.64703581 882.69069724 31.09554652 882.68963593 C29.02875134 882.68934641 26.96195617 882.68905693 24.89516099 882.68876753 C23.5161615 882.68857353 22.13716201 882.68837803 20.75816252 882.68818104 C-22.84459717 882.68196578 -66.44730133 882.69682248 -110.05004883 882.72949219 C-121.03585643 882.73771564 -132.02166407 882.74586571 -143.00747204 882.75359344 C-143.68394217 882.75406964 -144.36041231 882.75454584 -145.05738154 882.75503646 C-181.59699771 882.78059957 -218.13661321 882.78370427 -254.67623788 882.77995348 C-259.81645445 882.7794835 -264.95667101 882.77907325 -270.09688759 882.77870178 C-271.36254631 882.7785994 -272.62820503 882.77849701 -273.93221704 882.77839152 C-293.04061889 882.77719656 -312.14898381 882.78916564 -331.25737572 882.80784607 C-352.98954905 882.82908119 -374.72164489 882.83293485 -396.45382168 882.81354648 C-408.61485509 882.80321841 -420.77569948 882.8066952 -432.93671581 882.83007733 C-441.06295512 882.84431632 -449.18905465 882.84033533 -457.31528454 882.82163157 C-461.94340702 882.81148857 -466.57116178 882.80913016 -471.19926121 882.82895225 C-475.41743861 882.84685532 -479.63494115 882.84135696 -483.85308556 882.81792386 C-485.36199875 882.81350806 -486.87096662 882.81728977 -488.37982639 882.83073221 C-506.91807181 882.98457887 -525.04883793 876.94844646 -538.71484375 864.0078125 C-553.12854532 848.77700767 -560.63310342 830.3715267 -560.52392578 809.36669922 C-559.8824183 793.19128737 -553.68379502 779.75910461 -545.5625 766 C-544.90902588 764.87996582 -544.25555176 763.75993164 -543.58227539 762.60595703 C-538.45937646 753.83837641 -533.23249691 745.13237861 -527.99023438 736.43579102 C-521.99731237 726.48838236 -516.15401747 716.45688562 -510.31787109 706.41699219 C-506.84862314 700.45864217 -503.36218019 694.51036773 -499.875 688.5625 C-499.51412292 687.9469223 -499.15324585 687.3313446 -498.78143311 686.69711304 C-491.51654596 674.30688569 -484.21123993 661.94073536 -476.89453125 649.58105469 C-470.21648974 638.29819237 -463.56383207 627.00079478 -456.9375 615.6875 C-449.29060455 602.63177302 -441.60212551 589.60103512 -433.89453125 576.58105469 C-426.84611513 564.6724272 -419.82844244 552.74616518 -412.83508301 540.80514526 C-407.70566297 532.04729682 -402.55736008 523.30092752 -397.38623047 514.56762695 C-394.37210912 509.47321284 -391.37089128 504.37144937 -388.3828125 499.26171875 C-388.03152283 498.66106598 -387.68023315 498.06041321 -387.31829834 497.44155884 C-386.96318176 496.83436005 -386.60806519 496.22716125 -386.2421875 495.6015625 C-380.19557778 485.2631094 -374.11771385 474.94695149 -367.9375 464.6875 C-360.3857245 452.14830589 -352.98463074 439.52319063 -345.59912109 426.88574219 C-342.02826867 420.77573783 -338.4525026 414.6686125 -334.875 408.5625 C-334.52294495 407.96151489 -334.17088989 407.36052979 -333.8081665 406.74133301 C-328.05888672 396.92899172 -322.26876527 387.14132937 -316.46337891 377.36206055 C-311.16563944 368.43182771 -305.90853401 359.4783064 -300.66259766 350.51757812 C-296.10400973 342.73110621 -291.5337025 334.95185341 -286.9375 327.1875 C-281.91414685 318.70113167 -276.92125217 310.19715611 -271.9375 301.6875 C-264.29074694 288.63169004 -256.60212508 275.6010344 -248.89453125 262.58105469 C-241.84611513 250.6724272 -234.82844244 238.74616518 -227.83508301 226.80514526 C-222.70483646 218.04588565 -217.5549972 209.29852898 -212.3840332 200.56323242 C-207.94257676 193.05487668 -203.53238533 185.5283762 -199.125 178 C-192.93908447 167.43401244 -186.71445387 156.89196052 -180.46435547 146.36376953 C-175.16635489 137.43292879 -169.90886555 128.47887272 -164.66259766 119.51757812 C-160.10400973 111.73110621 -155.5337025 103.95185341 -150.9375 96.1875 C-146.28433607 88.32652311 -141.65602777 80.45120552 -137.03936768 72.5687561 C-122.18148262 47.20138436 -122.18148262 47.20138436 -115.92529297 36.68798828 C-114.93022902 35.01561465 -113.93707588 33.34210266 -112.94580078 31.66748047 C-100.53369024 10.73927154 -86.9165221 -6.09138121 -62.4375 -12.8125 C-40.53811557 -17.96181472 -17.96980022 -13.6885939 0 0 Z M-50.4375 97.1875 C-52.07234214 99.39892242 -52.07234214 99.39892242 -53.75390625 102.29296875 C-54.42679688 103.40671875 -55.0996875 104.52046875 -55.79296875 105.66796875 C-56.52887411 106.9035099 -57.26454451 108.13919101 -58 109.375 C-58.76515183 110.64872187 -59.53078434 111.92215508 -60.296875 113.1953125 C-65.93589 122.58722407 -71.47546145 132.03772073 -76.99487305 141.50027466 C-82.24053909 150.4933835 -87.5784716 159.4243525 -93 168.3125 C-100.54215773 180.67972741 -107.94968642 193.12334949 -115.31591797 205.59619141 C-119.16294049 212.1093516 -123.01655409 218.61860101 -126.875 225.125 C-127.27523376 225.79994507 -127.67546753 226.47489014 -128.08782959 227.17028809 C-133.98942364 237.11728893 -139.95867735 247.02083062 -145.97921753 256.89620972 C-152.11269698 266.9598207 -158.141596 277.08295865 -164.14349365 287.22549438 C-169.72055545 296.64762087 -175.35906532 306.02888 -181.0625 315.375 C-186.78676459 324.75599072 -192.40195694 334.19396434 -197.9375 343.6875 C-203.8125616 353.76331482 -209.78958194 363.76903084 -215.86523438 373.72509766 C-221.6278772 383.17061249 -227.30286604 392.66511125 -232.9375 402.1875 C-238.91530014 412.28983091 -244.94780069 422.35494775 -251.0625 432.375 C-257.15339884 442.35683514 -263.11154609 452.40895387 -269.00054932 462.51107788 C-274.56283403 472.04831754 -280.24557222 481.5048995 -286 490.92724609 C-291.41053167 499.79146733 -296.70742922 508.71572302 -301.9375 517.6875 C-307.80969643 527.75905254 -313.78448337 537.76014533 -319.85717773 547.71200562 C-326.57753936 558.72817313 -333.18235044 569.81066267 -339.75537109 580.9152832 C-340.5035577 582.17921285 -341.25176709 583.44312901 -342 584.70703125 C-342.5510289 585.63793579 -342.5510289 585.63793579 -343.1131897 586.58764648 C-346.07773919 591.59121565 -349.06883848 596.57854374 -352.06494141 601.56326294 C-354.68334228 605.92265354 -357.28465946 610.2918513 -359.875 614.66796875 C-360.24330933 615.29012772 -360.61161865 615.91228668 -360.99108887 616.55329895 C-361.74838484 617.83264441 -362.5056682 619.11199733 -363.26293945 620.39135742 C-370.43338536 632.50107951 -377.67915872 644.56068915 -385.00390625 656.57763672 C-391.33511466 666.97604547 -397.55473591 677.43962455 -403.75585938 687.91601562 C-404.50388498 689.17970009 -405.25193162 690.4433721 -406 691.70703125 C-406.36734253 692.32761917 -406.73468506 692.94820709 -407.11315918 693.58760071 C-410.07772472 698.59118165 -413.06882904 703.57852803 -416.06494141 708.56326294 C-418.68334224 712.92265347 -421.28466915 717.29184561 -423.875 721.66796875 C-424.24339996 722.29030899 -424.61179993 722.91264923 -424.99136353 723.55384827 C-425.74874399 724.83338101 -426.506119 726.11291698 -427.26348877 727.39245605 C-433.80672361 738.44196758 -440.39053792 749.46520705 -447.0625 760.4375 C-447.74376953 761.55858154 -448.42503906 762.67966309 -449.12695312 763.8347168 C-452.41630503 769.24125896 -455.71448362 774.64214928 -459.02645874 780.03485107 C-460.61681383 782.62599969 -462.20326282 785.21952797 -463.78924561 787.81335449 C-464.54771713 789.05130839 -465.30813935 790.2880695 -466.07061768 791.52355957 C-467.124685 793.23157098 -468.17187669 794.9438198 -469.21875 796.65625 C-469.81751953 797.63013672 -470.41628906 798.60402344 -471.03320312 799.60742188 C-472.64727427 802.3161085 -472.64727427 802.3161085 -473.4375 806.1875 C-193.5975 806.1875 86.2425 806.1875 374.5625 806.1875 C369.95477319 797.6913373 369.95477319 797.6913373 365.14453125 789.33203125 C364.5400415 788.31439697 363.93555176 787.2967627 363.31274414 786.24829102 C362.67328857 785.17635498 362.03383301 784.10441895 361.375 783 C360.68007528 781.83205807 359.98533775 780.66400474 359.29077148 779.49584961 C358.19185076 777.64789544 357.09268222 775.80009127 355.99269104 773.95277405 C353.28479209 769.40505964 350.58589073 764.852086 347.890625 760.296875 C340.34707863 747.55317696 332.76947212 734.83314633 325.0625 722.1875 C318.12671734 710.80712136 311.30013811 699.364934 304.5078125 687.8984375 C299.71783015 679.81286259 294.90638875 671.74095731 290.0625 663.6875 C284.80977448 654.95431001 279.59840593 646.19748444 274.40444946 637.42929077 C267.95424288 626.54091762 261.46072469 615.68198705 254.875 604.875 C247.37693101 592.5688851 240.0120697 580.18685213 232.68408203 567.77880859 C228.83705951 561.2656484 224.98344591 554.75639899 221.125 548.25 C220.52464935 547.2375824 220.52464935 547.2375824 219.91217041 546.20471191 C214.35100884 536.83150217 208.73443728 527.4940489 203.0625 518.1875 C196.13116406 506.81441763 189.30858905 495.37978173 182.52099609 483.92041016 C177.60301564 475.61826552 172.66051938 467.33184669 167.6875 459.0625 C163.2012491 451.59960094 158.73694368 444.12471717 154.3125 436.625 C153.79606934 435.74972656 153.27963867 434.87445313 152.74755859 433.97265625 C152.21211426 433.06515625 151.67666992 432.15765625 151.125 431.22265625 C140.18532109 412.6835387 129.19866251 394.17671891 117.99511719 375.7956543 C111.6641259 365.39788169 105.44492948 354.93481015 99.24414062 344.45898438 C98.49611502 343.19529991 97.74806838 341.9316279 97 340.66796875 C96.63265747 340.04738083 96.26531494 339.42679291 95.88684082 338.78739929 C93.29413782 334.41144635 90.68279657 330.04697727 88.0625 325.6875 C85.06691368 320.70364028 82.08695541 315.7109543 79.125 310.70703125 C78.75669067 310.08487228 78.38838135 309.46271332 78.00891113 308.82170105 C77.25161516 307.54235559 76.4943318 306.26300267 75.73706055 304.98364258 C69.24115267 294.013106 62.69817064 283.07407369 56.0625 272.1875 C49.12653201 260.80723602 42.30013649 249.36493126 35.5078125 237.8984375 C30.71783015 229.81286259 25.90638875 221.74095731 21.0625 213.6875 C15.81004958 204.95476739 10.59895417 196.19840068 5.40527344 187.43066406 C-0.98335521 176.64633101 -7.4141745 165.89093203 -13.9375 155.1875 C-20.21134479 144.89266406 -26.41071693 134.55575496 -32.5625 124.1875 C-32.95864502 123.52008789 -33.35479004 122.85267578 -33.76293945 122.16503906 C-34.90781404 120.23546978 -36.05159413 118.30525477 -37.1953125 116.375 C-37.73693024 115.46331055 -37.73693024 115.46331055 -38.28948975 114.53320312 C-40.04781877 111.56674322 -41.78282806 108.59036225 -43.47558594 105.5859375 C-44.09981445 104.48507813 -44.72404297 103.38421875 -45.3671875 102.25 C-45.91358887 101.27160156 -46.45999023 100.29320312 -47.02294922 99.28515625 C-47.48975098 98.59292969 -47.95655273 97.90070313 -48.4375 97.1875 C-49.0975 97.1875 -49.7575 97.1875 -50.4375 97.1875 Z " fill="#000000" transform="translate(600.4375,62.8125)"/>
<path d="M0 0 C4.80447392 4.12610135 7.26543323 7.90310203 9 14 C9.11195469 16.74788666 9.11195469 16.74788666 8.90956116 19.67224121 C8.79831862 21.4025848 8.79831862 21.4025848 8.68482876 23.16788483 C8.58911115 24.46019768 8.49339354 25.75251053 8.39477539 27.08398438 C8.2972341 28.51764447 8.20067185 29.95137143 8.10495853 31.38515472 C7.81848941 35.61829972 7.514979 39.8501045 7.20937204 44.08190536 C6.90858075 48.27414349 6.61664918 52.46698909 6.32395488 56.6597991 C5.28598913 71.51681894 4.21923591 86.37173777 3.14736449 101.22634009 C2.78346368 106.26969472 2.42034417 111.31310512 2.05772591 116.35655212 C2.00555375 117.08217782 1.95338158 117.80780351 1.89962845 118.55541787 C1.79357246 120.03052353 1.68751826 121.50562932 1.58146585 122.98073524 C0.59554846 136.69290895 -0.39260768 150.40492058 -1.3815878 164.11687368 C-2.22837423 175.85806492 -3.07324734 187.59939258 -3.91674805 199.34082031 C-4.90167393 213.05085361 -5.88773414 226.76080453 -6.87562603 240.47062445 C-6.98093253 241.93209162 -7.08623775 243.39355889 -7.19154167 244.85502625 C-7.24332908 245.57375035 -7.29511649 246.29247446 -7.34847321 247.03297809 C-7.71184607 252.07705948 -8.07441859 257.12119803 -8.43667793 262.1653595 C-8.92340507 268.94227083 -9.41200294 275.71904483 -9.90185165 282.49573135 C-10.08103718 284.97849838 -10.25962854 287.46130837 -10.4375782 289.94416428 C-10.68072619 293.33533213 -10.92603788 296.72633686 -11.17189026 300.11730957 C-11.27636666 301.58503681 -11.27636666 301.58503681 -11.3829537 303.0824151 C-12.78076096 322.23398485 -12.78076096 322.23398485 -19 328 C-28.94288032 334.63982177 -40.47367307 336.44567672 -52.15625 334.46484375 C-60.46874658 332.58218673 -66.37233349 329.56561093 -72 323 C-74.50714792 317.33201811 -74.62044309 311.38662724 -75.03775024 305.28723145 C-75.12521369 304.09958553 -75.21267714 302.91193961 -75.302791 301.68830442 C-75.54336142 298.399985 -75.77693514 295.11130465 -76.00753403 291.82227993 C-76.25818476 288.27157477 -76.51783938 284.72152655 -76.77635193 281.17138672 C-77.28126034 274.21763916 -77.77780601 267.26331854 -78.27147509 260.30876499 C-78.84725941 252.20137447 -79.43103015 244.09456493 -80.01505117 235.9877643 C-81.05755988 221.51248752 -82.09236879 207.03667038 -83.12304688 192.56054688 C-84.12171505 178.53405438 -85.12644094 164.50801263 -86.13769531 150.48242188 C-87.2396416 135.19884371 -88.33845532 119.91504679 -89.43164861 104.63083982 C-89.5484505 102.99782529 -89.66525259 101.36481077 -89.7820549 99.73179626 C-89.83951124 98.92841596 -89.89696758 98.12503566 -89.95616502 97.2973105 C-90.35979682 91.65610042 -90.7655322 86.0150439 -91.17201614 80.3740387 C-91.66822703 73.48642963 -92.16070072 66.59856463 -92.64859201 59.71036106 C-92.89726337 56.20063962 -93.14745537 52.69104586 -93.40203285 49.18174744 C-93.67807346 45.36435806 -93.94789669 41.54657641 -94.21621704 37.7286377 C-94.29656272 36.63735329 -94.37690839 35.54606889 -94.45968878 34.42171526 C-96.11458975 10.45979248 -96.11458975 10.45979248 -91.72265625 4.734375 C-69.51180147 -17.62757403 -25.36663107 -16.41174425 0 0 Z " fill="#000000" transform="translate(594,352)"/>
<path d="M0 0 C10.3579031 8.64468392 16.38167168 20.68362488 18.13671875 33.9609375 C19.31943302 53.17194365 17.28500619 68.71394747 4.94921875 84.1484375 C-4.05352814 94.00953941 -16.78713019 99.20975914 -29.90234375 100.1875 C-45.34728683 100.60086831 -58.26862426 96.74506891 -70.11328125 86.7734375 C-80.89361346 76.52356608 -86.03944932 63.38654101 -87.1015625 48.65625 C-87.44680243 32.04839215 -83.4841081 16.22691643 -71.8203125 3.80078125 C-51.7281082 -15.08829704 -22.00414563 -15.6700737 0 0 Z " fill="#000000" transform="translate(584.86328125,722.0390625)"/>
</svg>
